<?xml version="1.0" encoding="UTF-8"?>
<svg version="1.1" xmlns="http://www.w3.org/2000/svg" width="512" height="512">
<path d="M0 0 C168.96 0 337.92 0 512 0 C512 168.96 512 337.92 512 512 C343.04 512 174.08 512 0 512 C0 343.04 0 174.08 0 0 Z " fill="#FEFDFD" transform="translate(0,0)"/>
<path d="M0 0 C1.85314568 -0.0076664 1.85314568 -0.0076664 3.74372864 -0.01548767 C7.10987976 -0.02695169 10.47578343 -0.02946559 13.84193659 -0.02692437 C16.66680152 -0.02584793 19.49164423 -0.03075556 22.31650436 -0.03552979 C28.99243285 -0.0465972 35.66830507 -0.04707924 42.34423828 -0.04101562 C49.19303295 -0.03498972 56.04162146 -0.04725788 62.89038098 -0.06858569 C68.80158917 -0.08630571 74.71273238 -0.09218646 80.6239661 -0.08894795 C84.14049253 -0.08715003 87.65687219 -0.08961891 91.17337418 -0.10366249 C119.20889451 -0.20643289 119.20889451 -0.20643289 131.37451172 3.2746582 C131.37451172 3.9346582 131.37451172 4.5946582 131.37451172 5.2746582 C133.07607422 5.6768457 133.07607422 5.6768457 134.81201172 6.0871582 C136.57544922 6.6749707 136.57544922 6.6749707 138.37451172 7.2746582 C138.70451172 8.2646582 139.03451172 9.2546582 139.37451172 10.2746582 C140.69789804 10.96085852 142.03401119 11.62252281 143.37451172 12.2746582 C150.002929 17.28279571 156.333615 23.404102 159.37451172 31.2746582 C159.37451172 32.5946582 159.37451172 33.9146582 159.37451172 35.2746582 C160.03451172 35.2746582 160.69451172 35.2746582 161.37451172 35.2746582 C166.69566969 49.10071211 165.94941103 63.50999039 165.87888217 78.08796024 C165.86486106 81.71291907 165.87151043 85.3378533 165.87501526 88.96282959 C165.87770271 95.04146402 165.86436434 101.11989931 165.84106445 107.19848633 C165.81441586 114.19860262 165.81272831 121.1983874 165.82445282 128.19853711 C165.83527475 134.97475449 165.82901213 141.75085345 165.81489754 148.52706146 C165.80918069 151.39281812 165.80918601 154.2584869 165.81396294 157.12424469 C165.81967278 161.13191924 165.80030806 165.13910887 165.77856445 169.14672852 C165.78531693 170.90350418 165.78531693 170.90350418 165.79220581 172.69577026 C165.71796904 180.97126419 165.06830636 189.23396624 160.37451172 196.2746582 C159.71451172 196.2746582 159.05451172 196.2746582 158.37451172 196.2746582 C158.31263672 196.9965332 158.25076172 197.7184082 158.18701172 198.4621582 C157.10389266 202.21141648 155.22423094 203.61079023 152.37451172 206.2746582 C150.59748862 208.29815877 148.85561783 210.34789483 147.12060547 212.4074707 C145.32994261 214.32231823 143.56316502 215.8334591 141.37451172 217.2746582 C140.71451172 217.2746582 140.05451172 217.2746582 139.37451172 217.2746582 C139.37451172 217.9346582 139.37451172 218.5946582 139.37451172 219.2746582 C134.42182077 222.50467404 130.25050447 223.93669563 124.41357422 224.88012695 C122.38786398 225.07467035 122.38786398 225.07467035 121.37451172 226.2746582 C115.0148648 227.52857065 108.66602919 227.4294218 102.20385742 227.43579102 C100.38781258 227.44323837 100.38781258 227.44323837 98.53507996 227.45083618 C95.22899294 227.46289675 91.92296876 227.47039039 88.6168673 227.47484684 C86.54547564 227.47779005 84.47408935 227.48189715 82.40270042 227.48635101 C75.90469908 227.50000663 69.40671021 227.5096825 62.90869552 227.5135529 C55.43948906 227.51802782 47.97046612 227.53555741 40.50131541 227.5645535 C34.70655112 227.58625883 28.91183812 227.59626189 23.11703366 227.59759402 C19.66595099 227.59863582 16.21504127 227.6044087 12.76400185 227.62241364 C8.90657473 227.63956907 5.04958901 227.63757038 1.19213867 227.63110352 C-0.49393997 227.64492569 -0.49393997 227.64492569 -2.21408081 227.6590271 C-15.01439052 227.59218917 -25.5936168 223.93910389 -36.82861328 218.1418457 C-38.78468165 217.15073867 -38.78468165 217.15073867 -41.62548828 216.2746582 C-41.62548828 215.2846582 -41.62548828 214.2946582 -41.62548828 213.2746582 C-42.51494141 212.88600586 -42.51494141 212.88600586 -43.42236328 212.48950195 C-45.78406969 211.18721349 -47.13435274 209.88167342 -48.87548828 207.8371582 C-49.65666016 206.9419043 -49.65666016 206.9419043 -50.45361328 206.02856445 C-51.62548828 204.2746582 -51.62548828 204.2746582 -51.62548828 201.2746582 C-52.28548828 201.2746582 -52.94548828 201.2746582 -53.62548828 201.2746582 C-53.62548828 200.2846582 -53.62548828 199.2946582 -53.62548828 198.2746582 C-54.28548828 198.2746582 -54.94548828 198.2746582 -55.62548828 198.2746582 C-65.23515915 184.35720384 -63.06667895 165.73730396 -63.02392578 149.66918945 C-63.02459684 146.97702201 -63.02886274 144.28486179 -63.03262329 141.59269714 C-63.03805437 135.9653983 -63.03096338 130.33821823 -63.01660156 124.7109375 C-63.00031995 118.25802308 -63.00554147 111.80539382 -63.02208078 105.35248643 C-63.03581978 99.76296943 -63.03755437 94.17353688 -63.02976477 88.5840084 C-63.02515039 85.26750054 -63.02551052 81.95122989 -63.03437424 78.63471413 C-63.06514073 63.88428991 -62.56649048 49.75614184 -59.62548828 35.2746582 C-58.96548828 35.2746582 -58.30548828 35.2746582 -57.62548828 35.2746582 C-57.62548828 34.2846582 -57.62548828 33.2946582 -57.62548828 32.2746582 C-56.96548828 32.2746582 -56.30548828 32.2746582 -55.62548828 32.2746582 C-55.50173828 31.7177832 -55.37798828 31.1609082 -55.25048828 30.5871582 C-54.56571973 28.05351456 -53.63415065 25.69544789 -52.62548828 23.2746582 C-51.96548828 23.2746582 -51.30548828 23.2746582 -50.62548828 23.2746582 C-50.62548828 22.6146582 -50.62548828 21.9546582 -50.62548828 21.2746582 C-49.96548828 21.2746582 -49.30548828 21.2746582 -48.62548828 21.2746582 C-48.35736328 20.6765332 -48.08923828 20.0784082 -47.81298828 19.4621582 C-45.91386479 15.96377283 -44.42512467 14.54120367 -40.62548828 13.2746582 C-39.96548828 12.2846582 -39.30548828 11.2946582 -38.62548828 10.2746582 C-37.96548828 10.2746582 -37.30548828 10.2746582 -36.62548828 10.2746582 C-36.62548828 9.6146582 -36.62548828 8.9546582 -36.62548828 8.2746582 C-33.29215495 6.94132487 -29.95882161 5.60799154 -26.62548828 4.2746582 C-25.87654297 3.94208008 -25.12759766 3.60950195 -24.35595703 3.2668457 C-16.28887229 0.33545869 -8.5262584 -0.01836277 0 0 Z " fill="#96DBE5" transform="translate(332.62548828125,13.725341796875)"/>
<path d="M0 0 C1.71379097 -0.00422974 1.71379097 -0.00422974 3.46220398 -0.00854492 C5.32865067 -0.00550858 5.32865067 -0.00550858 7.23280334 -0.00241089 C8.55038132 -0.00416321 9.86795929 -0.00591553 11.22546387 -0.00772095 C14.832903 -0.01227383 18.44031348 -0.01051441 22.0477531 -0.00734186 C25.8272565 -0.00480667 29.60675748 -0.00715908 33.38626099 -0.00872803 C39.73387593 -0.01054655 46.08147923 -0.00815194 52.42909241 -0.00338745 C59.7607434 0.00205222 67.09236657 0.00029338 74.42401689 -0.00521386 C80.72479869 -0.0097568 87.02557213 -0.01038968 93.32635504 -0.00777519 C97.08684689 -0.00621862 100.84732569 -0.00600161 104.6078167 -0.00931168 C108.80183933 -0.01274554 112.99581426 -0.00798134 117.18983459 -0.00241089 C119.05324493 -0.00544724 119.05324493 -0.00544724 120.95429993 -0.00854492 C122.09964706 -0.0057251 123.2449942 -0.00290527 124.42504883 0 C125.41593474 0.00037703 126.40682066 0.00075405 127.42773342 0.0011425 C130.44408178 0.13440901 133.31040349 0.57303694 136.27601624 1.12698364 C136.27601624 1.78698364 136.27601624 2.44698364 136.27601624 3.12698364 C137.42070374 3.03417114 137.42070374 3.03417114 138.58851624 2.93948364 C141.88651403 3.16957651 142.09329002 3.77635541 144.27601624 6.12698364 C145.90613949 7.05848264 147.53762616 7.98774118 149.17835999 8.90042114 C151.65201867 10.34684354 154.02760083 11.89612583 156.40101624 13.50198364 C157.61144592 14.31796021 157.61144592 14.31796021 158.84632874 15.15042114 C164.0237624 19.3622884 167.19079501 24.28529669 170.08851624 30.18948364 C170.55547913 31.08763794 170.55547913 31.08763794 171.03187561 32.00393677 C172.78395364 35.519645 173.65505873 38.19534681 173.27601624 42.12698364 C173.93601624 42.12698364 174.59601624 42.12698364 175.27601624 42.12698364 C175.36960614 60.46873561 175.44006707 78.8104253 175.48326492 97.15236473 C175.50385877 105.66953913 175.53191829 114.18656485 175.57777405 122.7036438 C175.61773947 130.13023661 175.64347214 137.5567217 175.65237021 144.98341906 C175.65756862 148.91303577 175.66971968 152.84234441 175.69893646 156.77186203 C175.72625943 160.47698907 175.73442757 164.18168363 175.72844696 167.88690186 C175.73005739 169.8817499 175.7514913 171.87655176 175.7736969 173.87127686 C175.73918972 181.45565251 174.72878193 187.33700646 171.27601624 194.12698364 C170.61601624 194.12698364 169.95601624 194.12698364 169.27601624 194.12698364 C169.19351624 195.24073364 169.11101624 196.35448364 169.02601624 197.50198364 C168.27601624 201.12698364 168.27601624 201.12698364 166.21351624 202.56448364 C165.57414124 202.75010864 164.93476624 202.93573364 164.27601624 203.12698364 C164.27601624 203.78698364 164.27601624 204.44698364 164.27601624 205.12698364 C163.61601624 205.12698364 162.95601624 205.12698364 162.27601624 205.12698364 C162.06976624 205.66323364 161.86351624 206.19948364 161.65101624 206.75198364 C159.74351197 210.04676373 157.2278224 212.72061993 154.27601624 215.12698364 C153.61601624 215.12698364 152.95601624 215.12698364 152.27601624 215.12698364 C152.27601624 215.78698364 152.27601624 216.44698364 152.27601624 217.12698364 C151.61601624 217.12698364 150.95601624 217.12698364 150.27601624 217.12698364 C150.27601624 217.78698364 150.27601624 218.44698364 150.27601624 219.12698364 C148.6482059 219.81966889 147.01985033 220.51109154 145.38929749 221.19729614 C143.97328264 221.82023798 142.57400431 222.48259944 141.19398499 223.18167114 C131.58510355 227.92551531 121.08066065 227.27647063 110.57191467 227.27224731 C109.35260254 227.27560593 108.13329041 227.27896454 106.87702942 227.28242493 C103.56737971 227.29023758 100.25779276 227.29359875 96.94813824 227.29424071 C94.87542393 227.29495583 92.80271605 227.29709864 90.73000336 227.29973793 C83.48589668 227.3089545 76.24180827 227.31307682 68.99769592 227.31228638 C62.26349099 227.31168419 55.52936578 227.32227295 48.79518104 227.33803004 C42.99192167 227.35112141 37.18868837 227.35646972 31.38541436 227.35583097 C27.92844589 227.35557677 24.47154867 227.35838555 21.01459503 227.36900902 C17.16387827 227.38052354 13.31327083 227.37593343 9.46253967 227.36990356 C8.32679504 227.37552307 7.19105042 227.38114258 6.02088928 227.38693237 C0.35691183 227.36439012 -4.38039693 227.03290441 -9.72398376 225.12698364 C-10.76941345 224.79698364 -11.81484314 224.46698364 -12.89195251 224.12698364 C-13.88839783 223.79698364 -14.88484314 223.46698364 -15.91148376 223.12698364 C-16.91566345 222.79698364 -17.91984314 222.46698364 -18.95445251 222.12698364 C-21.32817481 221.26989915 -23.50202434 220.31485694 -25.72398376 219.12698364 C-25.72398376 218.46698364 -25.72398376 217.80698364 -25.72398376 217.12698364 C-26.3105072 217.04448364 -26.89703064 216.96198364 -27.50132751 216.87698364 C-30.38337322 215.90448316 -31.4025992 214.48710748 -33.28648376 212.12698364 C-35.89460974 208.81036031 -35.89460974 208.81036031 -39.72398376 207.12698364 C-41.18626463 204.78910315 -42.47547146 202.51242094 -43.72398376 200.06448364 C-44.07920105 199.38434204 -44.43441833 198.70420044 -44.80039978 198.00344849 C-47.13137275 193.47559703 -49.08338393 188.95227727 -50.72398376 184.12698364 C-51.05398376 183.79698364 -51.38398376 183.46698364 -51.72398376 183.12698364 C-51.82907837 181.35276944 -51.86364305 179.57435106 -51.87115479 177.79704285 C-51.87831009 176.64055237 -51.88546539 175.48406189 -51.89283752 174.29252625 C-51.89552643 173.01207932 -51.89821533 171.73163239 -51.90098572 170.41238403 C-51.90724799 169.05901921 -51.91389458 167.70565611 -51.92089844 166.35229492 C-51.93834066 162.66378981 -51.9488709 158.9752977 -51.95710397 155.28676152 C-51.96225178 152.98056961 -51.96832789 150.67438174 -51.9746151 148.36819267 C-51.99368395 141.14829656 -52.00790634 133.92841072 -52.01622707 126.70849425 C-52.02597929 118.38395919 -52.05223859 110.05969147 -52.09272796 101.73525053 C-52.12295954 95.2977578 -52.13770295 88.86034133 -52.14100808 82.42277902 C-52.14335236 78.58038295 -52.15222965 74.73827189 -52.17746925 70.89595222 C-52.20087588 67.27368614 -52.2049333 63.65189004 -52.19470787 60.02956772 C-52.193982 58.08007003 -52.21298886 56.13059556 -52.23277283 54.18119812 C-52.19358556 47.51134866 -51.53099233 42.28522326 -48.68011761 36.21716976 C-47.7550232 34.19483836 -47.19248946 32.29544453 -46.72398376 30.12698364 C-46.06398376 30.12698364 -45.40398376 30.12698364 -44.72398376 30.12698364 C-44.72398376 29.13698364 -44.72398376 28.14698364 -44.72398376 27.12698364 C-44.06398376 27.12698364 -43.40398376 27.12698364 -42.72398376 27.12698364 C-42.72398376 26.13698364 -42.72398376 25.14698364 -42.72398376 24.12698364 C-42.06398376 24.12698364 -41.40398376 24.12698364 -40.72398376 24.12698364 C-40.55898376 23.44635864 -40.39398376 22.76573364 -40.22398376 22.06448364 C-38.03406443 17.77589162 -34.60397377 14.93189309 -30.72398376 12.12698364 C-30.06398376 12.12698364 -29.40398376 12.12698364 -28.72398376 12.12698364 C-28.72398376 11.46698364 -28.72398376 10.80698364 -28.72398376 10.12698364 C-28.06398376 10.12698364 -27.40398376 10.12698364 -26.72398376 10.12698364 C-26.72398376 9.46698364 -26.72398376 8.80698364 -26.72398376 8.12698364 C-24.16413366 6.97490069 -21.60139864 5.83018991 -19.03648376 4.68948364 C-18.3152533 4.36399536 -17.59402283 4.03850708 -16.85093689 3.70315552 C-16.14517517 3.39055786 -15.43941345 3.07796021 -14.71226501 2.75588989 C-13.74607239 2.32385254 -13.74607239 2.32385254 -12.76036072 1.88308716 C-8.5361607 0.31464843 -4.4790234 0.00170489 0 0 Z " fill="#FF942D" transform="translate(54.72398376464844,264.8730163574219)"/>
<path d="M0 0 C3.51201972 0.01151581 7.02402876 0.00719261 10.536062 0.00525308 C16.4132527 0.00437785 22.29032633 0.01529948 28.16748595 0.03386331 C34.94449577 0.05514786 41.72133609 0.05850905 48.49837261 0.05230135 C55.06262137 0.046599 61.62681102 0.05225539 68.19105124 0.06347489 C70.96799041 0.0680963 73.74489314 0.06900565 76.52183509 0.06688905 C80.39076168 0.06464777 84.25952828 0.07914359 88.12842345 0.09538674 C89.8388835 0.09167062 89.8388835 0.09167062 91.58389831 0.08787942 C98.73018954 0.13574612 104.50891486 0.91062734 111.04321837 3.93254495 C114.10187139 5.41561321 114.10187139 5.41561321 116.54321837 5.74504495 C119.370328 6.71991033 120.53877932 9.05757706 122.35571837 11.37004495 C123.11884337 11.82379495 123.88196837 12.27754495 124.66821837 12.74504495 C130.98730759 16.56588959 135.03065663 21.39485973 137.35571837 28.37004495 C137.35571837 29.03004495 137.35571837 29.69004495 137.35571837 30.37004495 C138.01571837 30.37004495 138.67571837 30.37004495 139.35571837 30.37004495 C139.35571837 31.36004495 139.35571837 32.35004495 139.35571837 33.37004495 C140.01571837 33.37004495 140.67571837 33.37004495 141.35571837 33.37004495 C141.84977414 34.80249594 142.32482254 36.24149939 142.79321837 37.68254495 C143.06005431 38.48305276 143.32689025 39.28356057 143.60181212 40.1083262 C145.67651674 49.08437986 145.497257 58.38903066 145.46924376 67.55241799 C145.46938979 68.82198846 145.46953582 70.09155892 145.46968627 71.39960122 C145.46997053 74.84513549 145.46413436 78.2906342 145.45711231 81.73616028 C145.45081645 85.35027005 145.45027008 88.96438085 145.4490869 92.57849526 C145.44599183 99.4063352 145.43780327 106.23415892 145.42773741 113.06199175 C145.41651933 120.84202401 145.41105154 128.62205709 145.40604198 136.40209544 C145.39561894 152.39142129 145.37805518 168.38073102 145.35571837 184.37004495 C144.69571837 184.37004495 144.03571837 184.37004495 143.35571837 184.37004495 C143.41759337 185.00941995 143.47946837 185.64879495 143.54321837 186.30754495 C143.28011061 190.60497169 141.82754417 194.34880663 140.35571837 198.37004495 C139.69571837 198.37004495 139.03571837 198.37004495 138.35571837 198.37004495 C138.27321837 198.92691995 138.19071837 199.48379495 138.10571837 200.05754495 C136.30871444 205.59830708 131.55816436 209.07353607 127.25806212 212.72160745 C125.35820281 214.31280717 125.35820281 214.31280717 123.79712462 216.01848245 C122.35571837 217.37004495 122.35571837 217.37004495 119.35571837 218.37004495 C118.77306212 218.99524026 118.19040587 219.62043557 117.59009337 220.2645762 C114.79200583 222.90123561 112.22932136 223.80352514 108.60571837 225.05754495 C107.43524962 225.47391213 106.26478087 225.89027932 105.05884337 226.3192637 C97.22451869 228.54229464 89.49123323 228.51436616 81.40698791 228.49943948 C80.23194701 228.5011918 79.05690612 228.50294412 77.84625793 228.50474954 C73.97700038 228.50913663 70.10778886 228.50624072 66.23853087 228.50285745 C63.53865054 228.50308045 60.83877101 228.50450098 58.13889098 228.50575662 C52.48508753 228.50757206 46.83129718 228.50518893 41.17749572 228.50041604 C34.66326609 228.4949799 28.1490678 228.49673389 21.63483894 228.50224245 C16.02097698 228.5067977 10.40712439 228.5074122 4.79326117 228.50480378 C1.44963213 228.50325356 -1.89397055 228.50341147 -5.23760056 228.50634027 C-8.97067564 228.50889234 -12.70369141 228.50498999 -16.43676209 228.49943948 C-18.07516557 228.50247582 -18.07516557 228.50247582 -19.7466681 228.50557351 C-33.67085385 228.46740564 -33.67085385 228.46740564 -38.64428163 227.37004495 C-38.97428163 226.71004495 -39.30428163 226.05004495 -39.64428163 225.37004495 C-41.92325346 224.53258775 -41.92325346 224.53258775 -44.58178163 223.87004495 C-49.42706049 222.58726608 -49.42706049 222.58726608 -51.64428163 220.37004495 C-53.71302197 219.72752145 -53.71302197 219.72752145 -55.64428163 219.37004495 C-55.64428163 218.71004495 -55.64428163 218.05004495 -55.64428163 217.37004495 C-56.20115663 217.30816995 -56.75803163 217.24629495 -57.33178163 217.18254495 C-60.59347124 216.03654589 -62.37928551 213.86750119 -64.64428163 211.37004495 C-65.27850038 210.71649026 -65.91271913 210.06293557 -66.56615663 209.3895762 C-74.43922991 201.02813559 -77.93816062 193.4779511 -79.28490663 182.05754495 C-79.49157938 179.40484976 -79.49157938 179.40484976 -80.64428163 177.37004495 C-80.73928332 175.71471708 -80.77058382 174.0555624 -80.77126527 172.39751077 C-80.775495 170.82006837 -80.775495 170.82006837 -80.77981019 169.21075845 C-80.77778596 168.05224877 -80.77576173 166.8937391 -80.77367616 165.70012307 C-80.77542848 164.48384728 -80.7771808 163.2675715 -80.77898622 162.01443887 C-80.78264067 158.67359876 -80.78177367 155.33282034 -80.77860713 151.99198365 C-80.77608018 148.50020537 -80.77842201 145.00842977 -80.7799933 141.51665139 C-80.78181401 135.6521853 -80.77941126 129.78773179 -80.77465272 123.9232676 C-80.76921029 117.13748264 -80.77097301 110.35172772 -80.77647913 103.56594348 C-80.78101305 97.74595992 -80.78165943 91.92598542 -80.77904046 86.10600066 C-80.77747923 82.62728373 -80.77727972 79.14858093 -80.78057694 75.66986489 C-80.78399449 71.79322027 -80.77926133 67.91660945 -80.77367616 64.03996682 C-80.7767125 62.30220231 -80.7767125 62.30220231 -80.77981019 60.52933145 C-80.77699037 59.47770318 -80.77417054 58.42607491 -80.77126527 57.34257913 C-80.77088824 56.42522737 -80.77051122 55.5078756 -80.77012277 54.56272531 C-80.64428163 52.37004495 -80.64428163 52.37004495 -79.64428163 50.37004495 C-79.53952295 48.7462854 -79.46025601 47.12084224 -79.39428163 45.49504495 C-78.32965201 32.9979312 -71.77984705 22.65579033 -62.64428163 14.37004495 C-51.54166154 5.37004495 -51.54166154 5.37004495 -47.64428163 5.37004495 C-47.64428163 4.71004495 -47.64428163 4.05004495 -47.64428163 3.37004495 C-31.7456909 0.29841755 -16.15496783 -0.06558281 0 0 Z " fill="#E920B4" transform="translate(84.64428162574768,13.629955053329468)"/>
<path d="M0 0 C1.14082535 -0.00860046 2.2816507 -0.01720093 3.45704651 -0.02606201 C4.69969772 -0.03032196 5.94234894 -0.03458191 7.22265625 -0.03897095 C9.19678749 -0.05123718 9.19678749 -0.05123718 11.21080017 -0.06375122 C15.56889825 -0.08989031 19.92700551 -0.10527497 24.28515625 -0.11953735 C25.79086309 -0.12490117 27.29656987 -0.13027868 28.80227661 -0.13566971 C35.0715095 -0.1572903 41.34073991 -0.17602207 47.61000061 -0.1872921 C56.56421899 -0.20349972 65.51800135 -0.23660883 74.47205544 -0.29369295 C80.78398433 -0.33254593 87.09579739 -0.35194308 93.40784264 -0.35721266 C97.16931072 -0.36084642 100.93031292 -0.3726537 104.69165039 -0.4053154 C108.23772161 -0.43566679 111.78305169 -0.44161345 115.32922554 -0.42993164 C117.22923412 -0.42961004 119.12919883 -0.45389647 121.02903748 -0.47930908 C130.6516767 -0.41050484 139.20570703 1.76760067 147.28515625 7.15390015 C147.28515625 7.81390015 147.28515625 8.47390015 147.28515625 9.15390015 C148.08953125 9.27765015 148.08953125 9.27765015 148.91015625 9.40390015 C153.96472884 11.00008097 158.34635248 14.67848505 162.28515625 18.15390015 C162.28515625 18.81390015 162.28515625 19.47390015 162.28515625 20.15390015 C162.94515625 20.15390015 163.60515625 20.15390015 164.28515625 20.15390015 C170.28515625 30.15390015 170.28515625 30.15390015 170.28515625 35.15390015 C170.94515625 35.15390015 171.60515625 35.15390015 172.28515625 35.15390015 C172.50171875 36.85546265 172.50171875 36.85546265 172.72265625 38.59140015 C172.89687103 41.96167216 172.89687103 41.96167216 174.28515625 43.15390015 C175.32016349 51.49844067 175.43087983 59.90603732 175.41455078 68.30307007 C175.41717926 70.00820518 175.41717926 70.00820518 175.41986084 71.74778748 C175.42421874 75.45999737 175.4213635 79.17215862 175.41796875 82.8843689 C175.41864339 85.48742176 175.41961475 88.09047457 175.42086792 90.69352722 C175.42267776 96.1291353 175.42031381 101.5647297 175.41552734 107.00033569 C175.41007877 113.25962135 175.41185649 119.51887445 175.41735375 125.77815932 C175.42245897 131.83672797 175.42189297 137.89528085 175.41897202 143.9538517 C175.41830741 146.51617754 175.41911478 149.07850422 175.42145157 151.64082909 C175.42400412 155.22487943 175.42010128 158.80886804 175.41455078 162.39291382 C175.41657501 163.43992462 175.41859924 164.48693542 175.42068481 165.56567383 C175.39772514 173.60881558 175.32335457 181.80677379 172.84765625 189.52890015 C172.60144531 190.32038452 172.35523438 191.1118689 172.1015625 191.92733765 C171.30492649 194.09998132 170.36385234 196.10858029 169.28515625 198.15390015 C168.62515625 198.15390015 167.96515625 198.15390015 167.28515625 198.15390015 C167.18074219 198.72753296 167.07632813 199.30116577 166.96875 199.8921814 C166.17515784 202.51783773 165.01359991 204.17037821 163.34765625 206.34140015 C162.82300781 207.03620483 162.29835938 207.73100952 161.7578125 208.4468689 C160.28515625 210.15390015 160.28515625 210.15390015 158.28515625 211.15390015 C157.95515625 212.14390015 157.62515625 213.13390015 157.28515625 214.15390015 C156.17140625 214.58702515 156.17140625 214.58702515 155.03515625 215.02890015 C152.1246272 215.97850761 152.1246272 215.97850761 150.22265625 218.52890015 C146.48868052 221.86564442 142.87255678 222.85246367 138.125 224.2593689 C135.3815888 225.01519634 135.3815888 225.01519634 133.44852734 226.19309425 C130.77226803 227.38168632 128.75728192 227.41113576 125.83137512 227.42132568 C124.16873375 227.43412064 124.16873375 227.43412064 122.47250366 227.44717407 C121.26059357 227.4462677 120.04868347 227.44536133 118.80004883 227.44442749 C116.87966545 227.45450333 116.87966545 227.45450333 114.92048645 227.46478271 C111.40727811 227.48245309 107.89416723 227.48713907 104.38091874 227.48841429 C102.17900668 227.48983809 99.97711919 227.49411245 97.77521324 227.49940872 C90.07221286 227.51792611 82.36928166 227.52607891 74.66625977 227.52450562 C67.52388707 227.52331001 60.38181941 227.54429273 53.23952371 227.57599294 C47.08380003 227.60232483 40.92817474 227.6128656 34.77239531 227.6115948 C31.1070079 227.61108925 27.4418904 227.6165404 23.77655983 227.6379509 C-5.46853512 227.7973676 -5.46853512 227.7973676 -19.71484375 223.15390015 C-19.71484375 222.49390015 -19.71484375 221.83390015 -19.71484375 221.15390015 C-21.69484375 220.49390015 -23.67484375 219.83390015 -25.71484375 219.15390015 C-25.71484375 218.49390015 -25.71484375 217.83390015 -25.71484375 217.15390015 C-26.39546875 216.96827515 -27.07609375 216.78265015 -27.77734375 216.59140015 C-33.63263481 213.72604495 -37.60067214 208.78906782 -40.71484375 203.15390015 C-41.37484375 202.37015015 -42.03484375 201.58640015 -42.71484375 200.77890015 C-50.72686338 190.26312439 -50.86663749 177.38775805 -50.84423828 164.79037476 C-50.8459906 163.5715007 -50.84774292 162.35262665 -50.84954834 161.09681702 C-50.85318007 157.77459054 -50.85235047 154.45242684 -50.84916925 151.13020396 C-50.84662462 147.64213529 -50.84898898 144.15406916 -50.85055542 140.66600037 C-50.85237075 134.81129479 -50.84998727 128.95660185 -50.84521484 123.10189819 C-50.83977091 116.34562541 -50.8415384 109.5893828 -50.84704125 102.83311075 C-50.85158749 97.01717431 -50.85221561 91.20124692 -50.84960258 85.38530928 C-50.84804845 81.9182594 -50.84782235 78.45122368 -50.85113907 74.98417473 C-50.85457912 71.11878166 -50.84980338 67.25342208 -50.84423828 63.38803101 C-50.84626251 62.24757324 -50.84828674 61.10711548 -50.85037231 59.93209839 C-50.81125086 45.25030726 -50.81125086 45.25030726 -48.71484375 43.15390015 C-48.39083928 41.45140394 -48.10582113 39.74142117 -47.83984375 38.02890015 C-47.02760122 33.30927877 -45.81239754 29.44435108 -43.71484375 25.15390015 C-43.05484375 25.15390015 -42.39484375 25.15390015 -41.71484375 25.15390015 C-41.71484375 24.49390015 -41.71484375 23.83390015 -41.71484375 23.15390015 C-41.05484375 23.15390015 -40.39484375 23.15390015 -39.71484375 23.15390015 C-39.38484375 22.16390015 -39.05484375 21.17390015 -38.71484375 20.15390015 C-37.46484375 18.77890015 -37.46484375 18.77890015 -35.71484375 17.15390015 C-34.44640625 15.82358765 -34.44640625 15.82358765 -33.15234375 14.46640015 C-30.71484375 12.15390015 -30.71484375 12.15390015 -28.71484375 12.15390015 C-28.71484375 11.49390015 -28.71484375 10.83390015 -28.71484375 10.15390015 C-26.822919 9.16720255 -24.92612397 8.18983995 -23.02734375 7.21640015 C-21.97160156 6.67112671 -20.91585938 6.12585327 -19.828125 5.5640564 C-16.71484375 4.15390015 -16.71484375 4.15390015 -13.8828125 3.5874939 C-13.16738281 3.44440796 -12.45195312 3.30132202 -11.71484375 3.15390015 C-11.38484375 2.49390015 -11.05484375 1.83390015 -10.71484375 1.15390015 C-7.13641815 0.1553631 -3.69949567 0.02084838 0 0 Z " fill="#9AD24E" transform="translate(321.71484375,264.8460998535156)"/>
<path d="M0 0 C0 0.66 0 1.32 0 2 C-1.65 2.33 -3.3 2.66 -5 3 C-5 3.66 -5 4.32 -5 5 C-5.99 5 -6.98 5 -8 5 C-8.2578125 5.58394531 -8.515625 6.16789062 -8.78125 6.76953125 C-10.09698364 9.17749249 -11.54158592 10.77472693 -13.5 12.6875 C-14.41265625 13.59048828 -14.41265625 13.59048828 -15.34375 14.51171875 C-17 16 -17 16 -19 17 C-19.495 17.845625 -19.99 18.69125 -20.5 19.5625 C-20.995 20.366875 -21.49 21.17125 -22 22 C-22.66 22 -23.32 22 -24 22 C-24 22.99 -24 23.98 -24 25 C-24.66 25 -25.32 25 -26 25 C-26.06058594 25.63808594 -26.12117188 26.27617187 -26.18359375 26.93359375 C-26.30927734 28.17302734 -26.30927734 28.17302734 -26.4375 29.4375 C-26.51871094 30.26121094 -26.59992187 31.08492188 -26.68359375 31.93359375 C-27 34 -27 34 -28 35 C-29.02514751 42.04094132 -29.14253934 48.96915579 -29.12939453 56.07470703 C-29.13114685 57.25161606 -29.13289917 58.42852509 -29.13470459 59.64109802 C-29.1390882 63.5133514 -29.13619625 67.38555869 -29.1328125 71.2578125 C-29.13303569 73.96670569 -29.13445668 76.67559808 -29.13571167 79.38449097 C-29.13752673 85.05841566 -29.13514605 90.7323273 -29.13037109 96.40625 C-29.12494552 102.9277855 -29.12668138 109.44928964 -29.1321975 115.97082436 C-29.13676649 121.60176963 -29.13736034 127.23270558 -29.13475883 132.86365211 C-29.1332147 136.21245584 -29.13335356 139.56123335 -29.13629532 142.91003799 C-29.17969602 162.4779098 -29.17969602 162.4779098 -28 182 C-30.60361224 180.69819388 -30.95255822 179.6936448 -32 177 C-32.25726891 174.36492729 -32.25726891 174.36492729 -32.26742554 171.30929565 C-32.27595551 170.14868118 -32.28448547 168.98806671 -32.29327393 167.7922821 C-32.29236755 166.522621 -32.29146118 165.2529599 -32.29052734 163.94482422 C-32.29651343 162.59101491 -32.30331916 161.23720901 -32.31088257 159.88340759 C-32.32854848 156.20745216 -32.33323838 152.53158985 -32.33451414 148.85559607 C-32.33593674 146.55591333 -32.34020855 144.25625418 -32.34550858 141.9565773 C-32.36401558 133.92448681 -32.37217895 125.89246267 -32.37060547 117.86035156 C-32.36940607 110.38952036 -32.39046689 102.91897901 -32.4220928 95.44822109 C-32.4483153 89.02339512 -32.45897017 82.5986634 -32.45769465 76.17378438 C-32.45718647 72.34151025 -32.46278825 68.50949333 -32.48405075 64.6772728 C-32.50353253 61.06725608 -32.50349068 57.45773912 -32.48901749 53.84770393 C-32.48595626 51.90540752 -32.50253891 49.96311054 -32.51989746 48.02088928 C-32.47248025 41.36508996 -31.79792368 36.14763917 -28.95557594 30.09185982 C-28.03150906 28.06897677 -27.46864876 26.16852894 -27 24 C-26.34 24 -25.68 24 -25 24 C-25 23.01 -25 22.02 -25 21 C-24.34 21 -23.68 21 -23 21 C-23 20.01 -23 19.02 -23 18 C-22.34 18 -21.68 18 -21 18 C-20.835 17.319375 -20.67 16.63875 -20.5 15.9375 C-18.31008067 11.64890797 -14.87999001 8.80490944 -11 6 C-10.34 6 -9.68 6 -9 6 C-9 5.34 -9 4.68 -9 4 C-8.34 4 -7.68 4 -7 4 C-7 3.34 -7 2.68 -7 2 C-2.25 0 -2.25 0 0 0 Z " fill="#FFB874" transform="translate(35,271)"/>
<path d="M0 0 C4.91277479 7.36916218 4.29254367 16.41183104 4.2746582 24.96435547 C4.27976913 26.2354718 4.28488007 27.50658813 4.29014587 28.81622314 C4.30345061 32.27915795 4.30412411 35.74198305 4.30158257 39.20493841 C4.30050699 42.10722534 4.30541118 45.0094906 4.310188 47.91177285 C4.32125381 54.76492911 4.32173719 61.61803055 4.31567383 68.47119141 C4.30963672 75.51546802 4.32194501 82.55954477 4.3432439 89.6037873 C4.36091965 95.67544088 4.36685186 101.74703117 4.36360615 107.81870949 C4.36180257 111.43459335 4.36433613 115.05033462 4.37832069 118.66619492 C4.39335219 122.70321161 4.38387698 126.73982729 4.37231445 130.77685547 C4.37995819 131.95746552 4.38760193 133.13807556 4.39547729 134.35446167 C4.34312202 142.6603457 3.71220148 150.93169778 -1 158 C-1.66 158 -2.32 158 -3 158 C-3.33 159.65 -3.66 161.3 -4 163 C-5.24546405 160.50907189 -4.7767578 159.58919267 -4 157 C-3.34 157 -2.68 157 -2 157 C-2 155.68 -2 154.36 -2 153 C-1.34 153 -0.68 153 0 153 C1.23461709 138.43600623 1.14587098 123.8833257 1.1328125 109.27734375 C1.1334876 106.60087528 1.13445828 103.92440819 1.13571167 101.24794006 C1.13751936 95.66292823 1.13516387 90.07792972 1.13037109 84.49291992 C1.12492852 78.07746118 1.1266968 71.66203423 1.1321975 65.24657625 C1.13676565 59.6919223 1.13736129 54.13727781 1.13475883 48.58262259 C1.13321661 45.28534538 1.13335002 41.98808599 1.13629532 38.69080925 C1.16938942 19.32288319 1.16938942 19.32288319 0 0 Z " fill="#B5E5EC" transform="translate(494,52)"/>
<path d="M0 0 C0.66 0 1.32 0 2 0 C2 0.99 2 1.98 2 3 C2.66 3 3.32 3 4 3 C7.49218698 12.47879324 8.30052383 21.59605447 8.30639648 31.63134766 C8.31472 32.85556427 8.32304352 34.07978088 8.33161926 35.34109497 C8.35146977 38.67211979 8.36233863 42.00289577 8.36744571 45.33395815 C8.37111176 47.4243338 8.37736328 49.51468625 8.3844471 51.60505295 C8.40888102 58.92437524 8.42197978 66.24362731 8.42553711 73.56298828 C8.429165 80.34203271 8.45902198 87.12062242 8.50094169 93.89952815 C8.53585544 99.75472382 8.55108918 105.60977033 8.55178314 111.46506917 C8.552569 114.94653516 8.56098256 118.42753697 8.58978081 121.90889359 C8.80561351 149.63306004 8.80561351 149.63306004 3 163 C1.77590435 158.94841579 2.65905958 157.02282125 4 153 C5.11187167 145.78244096 5.1434795 138.52430599 5.12939453 131.23901367 C5.13202301 129.54176399 5.13202301 129.54176399 5.13470459 127.81022644 C5.13908012 124.09612461 5.13619969 120.38207101 5.1328125 116.66796875 C5.13348691 114.06781505 5.13445809 111.46766142 5.13571167 108.86750793 C5.13718294 103.42655781 5.13514964 97.98562554 5.13037109 92.54467773 C5.1249383 86.28721845 5.12668733 80.02979181 5.1321975 73.77233332 C5.13731429 67.71538313 5.13673172 61.65844721 5.13381577 55.60149574 C5.13315232 53.04164945 5.13395438 50.48180232 5.13629532 47.92195702 C5.13885826 44.33100614 5.13493 40.7401163 5.12939453 37.14916992 C5.13141876 36.10823181 5.13344299 35.0672937 5.13552856 33.99481201 C6.03499095 21.71811147 6.03499095 21.71811147 3 11 C2.95907063 8.66702567 2.95758277 6.33294775 3 4 C2.34 4 1.68 4 1 4 C0.67 2.68 0.34 1.36 0 0 Z " fill="#DEF0C6" transform="translate(491,296)"/>
<path d="M0 0 C3.51201972 0.01151581 7.02402876 0.00719261 10.536062 0.00525308 C16.4132527 0.00437785 22.29032633 0.01529948 28.16748595 0.03386331 C34.94449577 0.05514786 41.72133609 0.05850905 48.49837261 0.05230135 C55.06262137 0.046599 61.62681102 0.05225539 68.19105124 0.06347489 C70.96799041 0.0680963 73.74489314 0.06900565 76.52183509 0.06688905 C80.39076168 0.06464777 84.25952828 0.07914359 88.12842345 0.09538674 C89.8388835 0.09167062 89.8388835 0.09167062 91.58389831 0.08787942 C97.19459138 0.1254605 102.10512775 0.29135631 107.35571837 2.37004495 C107.68571837 3.03004495 108.01571837 3.69004495 108.35571837 4.37004495 C107.43656142 4.29980615 106.51740447 4.22956735 105.57039428 4.1572001 C91.98671966 3.19971062 78.41666251 3.20615656 64.80493712 3.2020762 C62.25397767 3.19885402 59.7030184 3.19548927 57.15205932 3.19199014 C51.82939694 3.18603641 46.50675157 3.18410302 41.18408751 3.18474221 C35.08848618 3.18534221 28.99297353 3.17478997 22.8973946 3.15899855 C16.9637952 3.14419193 11.03022209 3.14075827 5.09660316 3.14135194 C2.60394276 3.14018456 0.11128145 3.13583407 -2.38136697 3.12801957 C-13.94293722 3.09515515 -25.4375126 3.13836639 -36.9536078 4.25944924 C-38.15414906 4.37581467 -38.15414906 4.37581467 -39.37894368 4.49453092 C-43.7013879 4.97595455 -47.54889006 5.81881152 -51.64428163 7.37004495 C-51.31428163 6.71004495 -50.98428163 6.05004495 -50.64428163 5.37004495 C-49.65428163 5.37004495 -48.66428163 5.37004495 -47.64428163 5.37004495 C-47.64428163 4.71004495 -47.64428163 4.05004495 -47.64428163 3.37004495 C-31.7456909 0.29841755 -16.15496783 -0.06558281 0 0 Z " fill="#ED5EC8" transform="translate(84.64428162574768,13.629955053329468)"/>
<path d="M0 0 C0.33 0 0.66 0 1 0 C1.00331015 0.62247053 1.00662029 1.24494106 1.01003075 1.88627434 C1.09166557 17.11431513 1.18388566 32.34225318 1.28752708 47.570158 C1.33740104 54.9346095 1.38384408 62.29905125 1.421875 69.66357422 C1.45507686 76.09121393 1.49505742 82.51877186 1.54279006 88.94632065 C1.56777879 92.34173077 1.58963711 95.73708859 1.60334396 99.13256454 C1.66801405 113.54723736 1.93280621 127.71788208 4 142 C2 141 2 141 1.15997314 138.82888794 C-2.04533104 125.69225903 -1.39411858 112.30011201 -1.328125 98.8671875 C-1.32348905 96.1390891 -1.32309021 93.41099371 -1.32244873 90.68289185 C-1.31877814 84.99264025 -1.30391329 79.3025109 -1.28125 73.61230469 C-1.25223714 66.31311474 -1.24200975 59.01402217 -1.2375679 51.71478081 C-1.23358902 45.41781889 -1.22110027 39.12087801 -1.20722103 32.82393122 C-1.20313035 30.80732299 -1.20020089 28.79071549 -1.19742584 26.77410507 C-1.19056891 23.02368061 -1.17694245 19.27334528 -1.16113281 15.52294922 C-1.16001495 14.40918411 -1.15889709 13.29541901 -1.15774536 12.14790344 C-1.15203522 11.12769608 -1.14632507 10.10748871 -1.14044189 9.05636597 C-1.13746723 8.1711923 -1.13449257 7.28601864 -1.13142776 6.37402153 C-1.00645068 4.1165207 -0.63154918 2.16503649 0 0 Z " fill="#C9ECF0" transform="translate(271,64)"/>
<path d="M0 0 C1.34774714 2.69549428 0.91559777 4.51548235 0.625 7.5 C0.53476563 8.4796875 0.44453125 9.459375 0.3515625 10.46875 C0 13 0 13 -1 15 C-1.09705 16.63954514 -1.13068233 18.28301811 -1.13371277 19.9254303 C-1.13797775 20.96694244 -1.14224274 22.00845459 -1.14663696 23.08152771 C-1.14618378 24.22904007 -1.14573059 25.37655243 -1.14526367 26.55883789 C-1.14862228 27.76386963 -1.1519809 28.96890137 -1.15544128 30.21044922 C-1.16333139 33.52283212 -1.16662005 36.83515233 -1.16725707 40.14754033 C-1.16796751 42.21904917 -1.17010184 44.29055143 -1.17275429 46.36205864 C-1.18201545 53.59546195 -1.18608868 60.82884682 -1.18530273 68.06225586 C-1.18470345 74.79225727 -1.19522378 81.52217813 -1.2110464 88.25215918 C-1.22415848 94.03658487 -1.22948501 99.82098439 -1.22884732 105.60542482 C-1.22859318 109.05700185 -1.2313972 112.50850749 -1.24202538 115.96006966 C-1.25358063 119.81854459 -1.24893714 123.67691102 -1.24291992 127.53540039 C-1.24853943 128.66874313 -1.25415894 129.80208588 -1.25994873 130.96977234 C-1.23511034 137.2541528 -0.68421358 142.94170728 1 149 C1.309375 150.155 1.61875 151.31 1.9375 152.5 C3.21099546 156.69504388 4.58833479 160.84970427 6 165 C3.44971017 163.72485508 3.06918289 162.59658703 2 160 C2 159.01 2 158.02 2 157 C1.34 157 0.68 157 0 157 C-0.98248524 152.9472484 -1.08159574 149.16138263 -1 145 C-1.66 145 -2.32 145 -3 145 C-3 99.46 -3 53.92 -3 7 C-2.34 7 -1.68 7 -1 7 C-1.020625 6.030625 -1.04125 5.06125 -1.0625 4.0625 C-1 1 -1 1 0 0 Z " fill="#F499DC" transform="translate(6,51)"/>
<path d="M0 0 C5.75 1.75 5.75 1.75 8 4 C9.7084826 4.5666609 11.44280706 5.05720896 13.1875 5.5 C16.14996671 6.26236906 19.0372005 7.01315459 21.9230957 8.03364563 C27.27119732 9.55403168 32.73406045 9.27006185 38.25 9.24291992 C39.46872803 9.24481827 40.68745605 9.24671661 41.94311523 9.24867249 C45.26960441 9.25173281 48.59584288 9.24589495 51.92230225 9.23571944 C55.41304353 9.22689775 58.90378109 9.2286972 62.39453125 9.2290802 C68.25523118 9.22814529 74.11587917 9.21948506 79.9765625 9.20581055 C86.74020189 9.19008692 93.50378444 9.18481257 100.2674408 9.1855461 C107.48573739 9.18622306 114.70401224 9.17927366 121.92230225 9.1700995 C123.99458907 9.1679743 126.06687235 9.16725915 128.13916016 9.16686058 C132.00946031 9.16566385 135.87971384 9.15592954 139.75 9.14526367 C140.89202881 9.14571686 142.03405762 9.14617004 143.21069336 9.14663696 C149.85117438 9.11991071 155.97363408 9.02782239 162.3125 6.875 C165 6 165 6 167 7 C159.63144115 12.29615168 150.05949308 11.14448187 141.37695312 11.12939453 C139.50716042 11.13202301 139.50716042 11.13202301 137.59959412 11.13470459 C134.20085716 11.13833718 130.80218155 11.13750603 127.4034481 11.1343255 C123.83443499 11.131781 120.26542436 11.13414524 116.69641113 11.13571167 C110.70466648 11.13752728 104.71293418 11.13514303 98.72119141 11.13037109 C91.80929655 11.12492965 84.8974312 11.12669273 77.98553705 11.1321975 C72.03455431 11.13674598 66.08358041 11.13737069 60.13259649 11.13475883 C56.58559022 11.1332056 53.03859778 11.13297604 49.49159241 11.13629532 C45.53539904 11.13973939 41.57923831 11.13495599 37.62304688 11.12939453 C36.45813217 11.13141876 35.29321747 11.13344299 34.09300232 11.13552856 C21.02023855 11.10154922 10.4324162 9.39129129 0 1 C0 0.67 0 0.34 0 0 Z " fill="#D6F0F4" transform="translate(295,231)"/>
<path d="M0 0 C1.54578627 3.09157253 0.60277633 5.68473019 0 9 C-0.33 9.33 -0.66 9.66 -1 10 C-2.23956057 16.33041994 -2.17241629 22.65382762 -2.20532227 29.08569336 C-2.21522186 30.28640472 -2.22512146 31.48711609 -2.23532104 32.72421265 C-2.26139865 35.99847475 -2.28330569 39.2727322 -2.30332303 42.54703593 C-2.3252819 45.97568349 -2.35262187 49.40428814 -2.37937927 52.832901 C-2.42917293 59.31730795 -2.47416085 65.80173888 -2.51740164 72.28619248 C-2.56688836 79.67197416 -2.62176386 87.05771276 -2.67708123 94.44345272 C-2.79069652 109.62892828 -2.8975796 124.81444449 -3 140 C-3.33 140 -3.66 140 -4 140 C-4.04681776 124.00512476 -4.08203661 108.01027191 -4.10362434 92.01534462 C-4.11391641 84.5878431 -4.12793695 77.16038427 -4.15087891 69.73291016 C-4.17087639 63.25559693 -4.18373147 56.77831463 -4.18817699 50.30097139 C-4.19077365 46.87447361 -4.19683329 43.4480643 -4.21146011 40.021595 C-4.22602953 36.18703264 -4.22797563 32.3526521 -4.22705078 28.51806641 C-4.23424133 27.39452759 -4.24143188 26.27098877 -4.24884033 25.11340332 C-4.22594573 16.31055649 -3.05279879 8.28616814 0 0 Z " fill="#D4EBB5" transform="translate(274,299)"/>
<path d="M0 0 C0 0.66 0 1.32 0 2 C-1.65 2.33 -3.3 2.66 -5 3 C-5 3.66 -5 4.32 -5 5 C-5.99 5 -6.98 5 -8 5 C-8.2578125 5.58394531 -8.515625 6.16789062 -8.78125 6.76953125 C-10.09698364 9.17749249 -11.54158592 10.77472693 -13.5 12.6875 C-14.41265625 13.59048828 -14.41265625 13.59048828 -15.34375 14.51171875 C-17 16 -17 16 -19 17 C-19.495 17.845625 -19.99 18.69125 -20.5 19.5625 C-20.995 20.366875 -21.49 21.17125 -22 22 C-22.66 22 -23.32 22 -24 22 C-24 22.99 -24 23.98 -24 25 C-24.66 25 -25.32 25 -26 25 C-26.06058594 25.63808594 -26.12117188 26.27617187 -26.18359375 26.93359375 C-26.30927734 28.17302734 -26.30927734 28.17302734 -26.4375 29.4375 C-26.51871094 30.26121094 -26.59992187 31.08492188 -26.68359375 31.93359375 C-27 34 -27 34 -28 35 C-28.397493 37.34723966 -28.74368723 39.70328548 -29.0625 42.0625 C-29.23910156 43.35285156 -29.41570313 44.64320313 -29.59765625 45.97265625 C-29.73042969 46.97167969 -29.86320312 47.97070312 -30 49 C-30.33 49 -30.66 49 -31 49 C-30.40546697 30.95899772 -30.40546697 30.95899772 -27 24 C-26.34 24 -25.68 24 -25 24 C-25 23.01 -25 22.02 -25 21 C-24.34 21 -23.68 21 -23 21 C-23 20.01 -23 19.02 -23 18 C-22.34 18 -21.68 18 -21 18 C-20.835 17.319375 -20.67 16.63875 -20.5 15.9375 C-18.31008067 11.64890797 -14.87999001 8.80490944 -11 6 C-10.34 6 -9.68 6 -9 6 C-9 5.34 -9 4.68 -9 4 C-8.34 4 -7.68 4 -7 4 C-7 3.34 -7 2.68 -7 2 C-2.25 0 -2.25 0 0 0 Z " fill="#FFB56E" transform="translate(35,271)"/>
<path d="M0 0 C0 0.66 0 1.32 0 2 C-1.65 2.33 -3.3 2.66 -5 3 C-5 3.66 -5 4.32 -5 5 C-5.99 5 -6.98 5 -8 5 C-8.2578125 5.58265625 -8.515625 6.1653125 -8.78125 6.765625 C-10.09834017 9.1802903 -11.55088384 10.81740177 -13.5 12.75 C-14.41265625 13.67039062 -14.41265625 13.67039062 -15.34375 14.609375 C-17 16 -17 16 -19 16 C-18.43867066 12.4628562 -17.30442253 11.00738321 -14.5625 8.75 C-13.94503906 8.22921875 -13.32757812 7.7084375 -12.69140625 7.171875 C-11 6 -11 6 -9 6 C-9 5.34 -9 4.68 -9 4 C-8.34 4 -7.68 4 -7 4 C-7 3.34 -7 2.68 -7 2 C-2.25 0 -2.25 0 0 0 Z " fill="#FFB26A" transform="translate(35,271)"/>
<path d="M0 0 C0.33 0.66 0.66 1.32 1 2 C0.34 2 -0.32 2 -1 2 C-1.268125 2.598125 -1.53625 3.19625 -1.8125 3.8125 C-2.99917406 5.99847854 -4.09599113 7.41332594 -6 9 C-6.66 9 -7.32 9 -8 9 C-8.061875 9.598125 -8.12375 10.19625 -8.1875 10.8125 C-9.3236757 13.87143458 -11.17330142 14.55041099 -14 16 C-11.77553498 8.65926543 -6.40600748 3.81309969 0 0 Z " fill="#EE60C9" transform="translate(26,25)"/>
<path d="M0 0 C5.75 1.75 5.75 1.75 8 4 C10.83197857 4.86209393 13.68777808 5.52997551 16.56640625 6.21875 C17.77103516 6.60546875 17.77103516 6.60546875 19 7 C19.33 7.66 19.66 8.32 20 9 C12.33605242 8.75277588 7.15572083 6.60457689 1 2 C0.67 1.34 0.34 0.68 0 0 Z " fill="#C3EAEF" transform="translate(295,231)"/>
<path d="M0 0 C0.33 0.66 0.66 1.32 1 2 C-0.3125 4.625 -0.3125 4.625 -2 7 C-2.66 7 -3.32 7 -4 7 C-4 7.99 -4 8.98 -4 10 C-4.66 10 -5.32 10 -6 10 C-6.33 10.66 -6.66 11.32 -7 12 C-7 11.01 -7 10.02 -7 9 C-6.34 9 -5.68 9 -5 9 C-5 8.01 -5 7.02 -5 6 C-4.34 6 -3.68 6 -3 6 C-3 5.01 -3 4.02 -3 3 C-2.34 3 -1.68 3 -1 3 C-0.67 2.01 -0.34 1.02 0 0 Z " fill="#FFC186" transform="translate(15,286)"/>
<path d="M0 0 C0.625 1.8125 0.625 1.8125 1 4 C0.01 5.485 0.01 5.485 -1 7 C-1.66 7 -2.32 7 -3 7 C-3.33 8.65 -3.66 10.3 -4 12 C-5.24546405 9.50907189 -4.7767578 8.58919267 -4 6 C-3.34 6 -2.68 6 -2 6 C-2 4.68 -2 3.36 -2 2 C-1.34 2 -0.68 2 0 2 C0 1.34 0 0.68 0 0 Z " fill="#C2E9EF" transform="translate(494,203)"/>
<path d="M0 0 C1.64846769 0.44876616 3.29373455 0.90930488 4.9375 1.375 C5.85402344 1.63023437 6.77054688 1.88546875 7.71484375 2.1484375 C10 3 10 3 11 5 C8.36 4.67 5.72 4.34 3 4 C3 3.34 3 2.68 3 2 C2.01 1.67 1.02 1.34 0 1 C0 0.67 0 0.34 0 0 Z " fill="#FFD2A8" transform="translate(35,486)"/>
<path d="M0 0 C0.66 0.33 1.32 0.66 2 1 C0.25 6.75 0.25 6.75 -2 9 C-2 7.02 -2 5.04 -2 3 C-1.34 3 -0.68 3 0 3 C0 2.01 0 1.02 0 0 Z " fill="#C3EAEF" transform="translate(275,46)"/>
</svg>
